<?xml version="1.0" encoding="utf-8"?>
<!-- Generator: Adobe Illustrator 21.0.0, SVG Export Plug-In . SVG Version: 6.00 Build 0)  -->
<svg version="1.1" id="Layer_1" xmlns="http://www.w3.org/2000/svg" xmlns:xlink="http://www.w3.org/1999/xlink" x="0px" y="0px"
	 viewBox="0 0 491.2 68.4" style="enable-background:new 0 0 491.2 68.4;" xml:space="preserve">
<style type="text/css">
	.st0{fill:#FFFFFF;}
	.st1{fill:#00A7DA;}
	.st2{fill:#ABBF00;}
	.st3{fill:#FFD100;}
	.st4{fill:#37444C;}
</style>
<g>
	<polygon class="st0" points="187.3,31.1 213.7,31.1 213.7,21.8 187.3,21.8 187.3,10.1 216.1,10.1 216.1,0 175.3,0 175.3,54.6 
		216.7,54.6 216.7,44.5 187.3,44.5 	"/>
	<polygon class="st0" points="256.3,15.1 244.3,15.1 237.4,25.4 230.5,15.1 218.1,15.1 231.1,33.8 216.9,54.6 229,54.6 237.3,42.1 
		245.5,54.6 257.9,54.6 243.3,33.6 	"/>
	<path class="st0" d="M287.4,39.6c-0.3,1.5-0.8,2.9-1.6,4c-0.7,1.1-1.7,2.1-2.9,2.8c-1.2,0.7-2.7,1.1-4.5,1.1
		c-1.7,0-3.2-0.4-4.4-1.1c-1.2-0.7-2.2-1.6-2.9-2.8c-0.7-1.1-1.3-2.5-1.6-4c-0.3-1.5-0.5-3.1-0.5-4.7s0.2-3.2,0.5-4.7s0.8-2.9,1.6-4
		c0.7-1.2,1.7-2.1,2.9-2.9c1.2-0.7,2.7-1.1,4.5-1.1c1.7,0,3.2,0.4,4.4,1.1c1.2,0.7,2.2,1.7,2.9,2.9c0.8,1.2,1.3,2.6,1.6,4.1
		c0.3,1.5,0.5,3.1,0.5,4.7C287.9,36.5,287.7,38.1,287.4,39.6 M294.4,20.4c-1.5-1.9-3.3-3.5-5.6-4.7c-2.2-1.2-4.9-1.8-8-1.8
		c-2.4,0-4.7,0.5-6.7,1.5s-3.7,2.5-5,4.7h-0.2v-5h-10.3v53.3h10.9V49.7h0.2c1.3,1.9,3,3.4,5.1,4.4s4.3,1.5,6.8,1.5
		c2.9,0,5.4-0.6,7.6-1.7s4-2.6,5.4-4.5c1.5-1.9,2.5-4.1,3.2-6.5s1.1-5,1.1-7.6c0-2.8-0.4-5.5-1.1-8.1
		C296.9,24.6,295.8,22.3,294.4,20.4"/>
	<path class="st0" d="M310.3,30.6c0.1-0.8,0.2-1.6,0.5-2.6s0.8-1.9,1.5-2.8s1.6-1.6,2.8-2.2c1.1-0.6,2.6-0.9,4.3-0.9
		c2.6,0,4.6,0.7,5.9,2.1s2.2,3.5,2.7,6.3L310.3,30.6L310.3,30.6z M334.6,21.2c-1.6-2.2-3.7-3.9-6.2-5.2s-5.4-1.9-8.8-1.9
		c-3,0-5.7,0.5-8.2,1.6s-4.6,2.5-6.4,4.4s-3.2,4.1-4.1,6.6c-1,2.5-1.5,5.3-1.5,8.3c0,3.1,0.5,5.9,1.4,8.4s2.3,4.7,4,6.6
		c1.7,1.8,3.8,3.2,6.3,4.2s5.3,1.5,8.4,1.5c4.5,0,8.3-1,11.5-3.1c3.2-2,5.5-5.4,7-10.2h-9.4c-0.4,1.2-1.3,2.4-2.9,3.5
		s-3.5,1.6-5.7,1.6c-3.1,0-5.4-0.8-7-2.4s-2.5-4.1-2.7-7.6h28.5c0.2-3.1-0.1-6-0.8-8.8C337.4,25.9,336.2,23.4,334.6,21.2"/>
	<path class="st0" d="M374.8,18.5c-1.1-1.4-2.5-2.5-4.4-3.3s-4.2-1.2-7.1-1.2c-2.3,0-4.5,0.5-6.7,1.6c-2.2,1-4,2.7-5.3,5h-0.2v-5.5
		h-10.3v39.5h10.9V33.9c0-4,0.7-6.9,2-8.7c1.3-1.8,3.5-2.6,6.4-2.6c2.6,0,4.4,0.8,5.4,2.4s1.5,4,1.5,7.3v22.3h10.9V30.3
		c0-2.4-0.2-4.7-0.6-6.7C376.7,21.6,375.9,19.9,374.8,18.5"/>
	<path class="st0" d="M411.4,34.1c-1.2-0.8-2.5-1.5-4-2s-3-0.9-4.6-1.3c-1.5-0.4-3-0.7-4.5-1s-2.8-0.7-3.9-1
		c-1.1-0.4-2.1-0.9-2.8-1.5c-0.7-0.6-1.1-1.4-1.1-2.4c0-0.8,0.2-1.5,0.6-1.9c0.4-0.5,0.9-0.9,1.5-1.1c0.6-0.3,1.2-0.4,1.9-0.5
		c0.7-0.1,1.4-0.1,2-0.1c1.9,0,3.6,0.4,5,1.1s2.2,2.2,2.4,4.2h10.3c-0.2-2.4-0.8-4.5-1.9-6.1c-1-1.6-2.4-2.9-3.9-3.9
		c-1.6-1-3.4-1.7-5.4-2.1s-4.1-0.6-6.2-0.6s-4.2,0.2-6.3,0.6c-2,0.4-3.9,1-5.5,2c-1.6,0.9-2.9,2.2-3.9,3.9c-1,1.6-1.5,3.7-1.5,6.3
		c0,1.7,0.4,3.2,1.1,4.4s1.7,2.2,2.8,3c1.2,0.8,2.5,1.4,4,1.9s3,0.9,4.6,1.3c3.9,0.8,6.9,1.6,9.1,2.4s3.2,2,3.2,3.7
		c0,1-0.2,1.8-0.7,2.4s-1,1.1-1.7,1.5s-1.5,0.7-2.3,0.8c-0.8,0.2-1.6,0.3-2.4,0.3c-1.1,0-2.1-0.1-3.1-0.4s-1.9-0.6-2.6-1.2
		c-0.8-0.5-1.4-1.2-1.9-2.1c-0.5-0.8-0.7-1.8-0.7-3h-10.3c0.1,2.7,0.7,4.9,1.8,6.6c1.1,1.8,2.5,3.2,4.2,4.2c1.7,1.1,3.7,1.8,5.8,2.3
		c2.2,0.5,4.4,0.7,6.7,0.7c2.2,0,4.4-0.2,6.6-0.6s4.1-1.2,5.8-2.3c1.7-1.1,3-2.5,4.1-4.2c1-1.8,1.6-3.9,1.6-6.5
		c0-1.8-0.4-3.4-1.1-4.6C413.6,36,412.6,35,411.4,34.1"/>
	<rect x="416.4" class="st0" width="10.9" height="8.9"/>
	<rect x="416.4" y="15.1" class="st0" width="10.9" height="39.5"/>
	<path class="st0" d="M479.9,15.1l-8.6,27.1h-0.2l-8.9-27.1h-8.7h-2.9h-4.7v-2.4c0-1.6,0.3-2.8,1-3.5c0.6-0.7,1.7-1,3.2-1
		c1.4,0,2.7,0.1,4,0.2V0.3c-0.9-0.1-1.9-0.1-2.8-0.2c-1-0.1-1.9-0.1-2.9-0.1c-4.4,0-7.7,1.1-9.9,3.4c-2.2,2.2-3.3,5.1-3.3,8.6v3.1
		h-6.6v7.3h6.5v32.2H446V22.3h7.4l11.1,29.8c0.3,0.8,0.5,1.6,0.5,2.4c0,1.2-0.3,2.2-1,3.2s-1.7,1.5-3.2,1.7c-1.1,0.1-2.1,0-3.2-0.1
		s-2.1-0.2-3.1-0.3v8.9c1.1,0.1,2.2,0.2,3.3,0.3c1.1,0.1,2.2,0.1,3.3,0.1c3.7,0,6.6-0.7,8.7-2.1s3.7-3.7,4.9-6.9l16.5-44.4h-11.3
		L479.9,15.1L479.9,15.1z"/>
</g>
<path class="st1" d="M169.3,49.4c0,2.8-2.3,5.1-5.1,5.1h-44.3c-2.8,0-5.1-2.3-5.1-5.1V5.1c0-2.8,2.3-5.1,5.1-5.1h44.3
	c2.8,0,5.1,2.3,5.1,5.1V49.4z"/>
<path class="st2" d="M111.9,49.4c0,2.8-2.3,5.1-5.1,5.1H62.5c-2.8,0-5.1-2.3-5.1-5.1V5.1c0-2.8,2.3-5.1,5.1-5.1h44.3
	c2.8,0,5.1,2.3,5.1,5.1V49.4z"/>
<path class="st3" d="M54.5,49.4c0,2.8-2.3,5.1-5.1,5.1H5.1c-2.8,0-5.1-2.3-5.1-5.1V5.1C0,2.3,2.3,0,5.1,0h44.3
	c2.8,0,5.1,2.3,5.1,5.1C54.5,5.1,54.5,49.4,54.5,49.4z"/>
<path class="st0" d="M157.8,8.1c2.5-2.5,6.2,1.2,3.6,3.8l-10.3,10.3l5.8,23.1l-3.8,3.8L143.5,30l-7.7,7.7l0.7,5.9l-3,3l-3.5-6.7
	l-6.7-3.5l3-3l5.9,0.7l7.7-7.7l-19.1-9.6l3.8-3.8l22.9,5.5L157.8,8.1z"/>
<path class="st4" d="M88.4,9.6v22.8h2.5v15c0,3.3,4.7,3.4,4.7,0V9.6C95.6,4.2,88.4,4.2,88.4,9.6 M83,20.1c0,1.4-1.3,3-3,3v24.4
	c0,3.5-4.7,3.5-4.7,0V23c-1.7,0-3.1-1.3-3.1-3.2V6.4c0-1.2,1.7-1.2,1.7,0v9.9h1.4v-10c0-1.1,1.6-1.1,1.6,0v10h1.5v-10
	c0-1.1,1.6-1.2,1.6,0v9.9h1.4v-10c0-1.1,1.6-1.2,1.6,0V20.1z"/>
<path class="st4" d="M42.6,33.2c-1.7,0-3.1-1.4-3.1-3.2c0-1.8,1.4-3.2,3.1-3.2s3.1,1.4,3.1,3.2S44.3,33.2,42.6,33.2 M27.4,23.3
	L27.4,23.3L27.4,23.3H13l2.7-7.4c0.3-1,0.9-1.8,2.1-1.8h9.6l0,0l0,0H37c1.2,0,1.7,0.8,2.1,1.8l2.7,7.4H27.4z M12.2,33.2
	c-1.7,0-3.1-1.4-3.1-3.2c0-1.8,1.4-3.2,3.1-3.2s3.1,1.4,3.1,3.2S13.9,33.2,12.2,33.2 M45.6,23.4L42,14c-0.7-1.8-2.2-3.3-5-3.3h-5.1
	l0,0V7.8c0-0.5-0.4-0.9-0.9-0.9h-7c-0.5,0-0.9,0.4-0.9,0.9v2.8h-5.2c-2.8,0-4.3,1.5-5,3.3l-3.6,9.4c-1.4,0.2-4,1.9-4,5.1v12h3.5v3.8
	c0,4.7,6.7,4.7,6.7,0v-3.8h12l0,0l0,0h12v3.8c0,4.7,6.7,4.7,6.7,0v-3.8h3.5v-12C49.6,25.3,47,23.6,45.6,23.4"/>
</svg>
