<?xml version="1.0" encoding="utf-8"?>
<!-- Generator: Adobe Illustrator 21.0.0, SVG Export Plug-In . SVG Version: 6.00 Build 0)  -->
<svg version="1.1" id="Layer_1" xmlns="http://www.w3.org/2000/svg" xmlns:xlink="http://www.w3.org/1999/xlink" x="0px" y="0px"
	 viewBox="0 0 200 200" style="enable-background:new 0 0 200 200;" xml:space="preserve">
<style type="text/css">
	.st0{fill:#FFD100;}
	.st1{fill:#ABBF00;}
	.st2{fill:#00A7DA;}
	.st3{fill:#FFFFFF;}
	.st4{fill:#37444C;}
</style>
<path class="st0" d="M175,0h-75v100h100V25C200,11.2,188.8,0,175,0z"/>
<path class="st1" d="M100,200h75c13.8,0,25-11.2,25-25v-75H100V200z"/>
<path class="st2" d="M0,100v75c0,13.8,11.2,25,25,25h75V100H0z"/>
<path class="st3" d="M100,0H25C11.2,0,0,11.2,0,25v75h100V0z"/>
<polygon class="st4" points="72.7,69.2 43.3,69.2 43.3,55.8 69.7,55.8 69.7,46.5 43.3,46.5 43.3,34.8 72.1,34.8 72.1,24.7 
	31.3,24.7 31.3,79.3 72.7,79.3 "/>
<path class="st3" d="M75.3,119.3l-14.8,14.8l-32.7-7.9l-5.4,5.4l27.2,13.8l-11,11l-8.4-1l-4.3,4.3l9.6,5l5,9.6l4.3-4.3l-1-8.5l11-11
	l13.8,27.3l5.4-5.4l-8.2-33l14.7-14.7C84.1,121.1,78.8,115.8,75.3,119.3z"/>
<path class="st4" d="M123.3,69.4v5.1c0,6.2,8.8,6.2,8.8,0v-5.1h31.7v5.1c0,6.2,8.8,6.2,8.8,0v-5.1h4.7V53.5c0-4.2-3.4-6.5-5.3-6.7
	l-4.8-12.4c-0.9-2.4-2.9-4.4-6.6-4.4h-6.8l0,0v-3.8c0-0.7-0.5-1.2-1.2-1.2h-9.2c-0.7,0-1.2,0.5-1.2,1.2V30h-6.8
	c-3.7,0-5.7,2-6.6,4.4L124,46.8c-1.9,0.2-5.3,2.5-5.3,6.7v15.8L123.3,69.4L123.3,69.4z M168.1,51.5c2.3,0,4.1,1.9,4.1,4.2
	c0,2.3-1.8,4.2-4.1,4.2c-2.2,0-4.1-1.9-4.1-4.2C164,53.3,165.9,51.5,168.1,51.5z M132.5,36.9c0.5-1.4,1.1-2.4,2.7-2.4H148l0,0l0,0
	h12.7c1.6,0,2.3,1,2.7,2.4l3.6,9.8h-19l0,0h-19.1L132.5,36.9z M127.9,51.5c2.2,0,4.1,1.9,4.1,4.2c0,2.3-1.8,4.2-4.1,4.2
	c-2.3,0-4.1-1.9-4.1-4.2C123.8,53.3,125.6,51.5,127.9,51.5z"/>
<path class="st4" d="M144.1,115.1v15.4h-2.2v-15.3c0-1.9-2.4-1.8-2.4-0.1v15.4h-2.2v-15.3c0-1.8-2.5-1.7-2.5-0.1v15.4h-2.2v-15.2
	c0-1.9-2.6-1.8-2.6-0.1v20.6c0,2.9,2.2,4.9,4.8,4.9v37.5c0,5.3,7.2,5.3,7.2,0v-37.5c2.6,0,4.6-2.4,4.6-4.6v-20.9
	C146.7,113.4,144.1,113.4,144.1,115.1z"/>
<path class="st4" d="M154.9,120v35.1h3.9v23.1c0,5.1,7.3,5.2,7.3,0V120C166,111.8,154.9,111.8,154.9,120z"/>
</svg>
