<?xml version="1.0" encoding="utf-8"?>
<!-- Generator: Adobe Illustrator 21.0.0, SVG Export Plug-In . SVG Version: 6.00 Build 0)  -->
<svg version="1.1" id="Layer_1" xmlns="http://www.w3.org/2000/svg" xmlns:xlink="http://www.w3.org/1999/xlink" x="0px" y="0px"
	 viewBox="0 0 200 200" style="enable-background:new 0 0 200 200;" xml:space="preserve">
<style type="text/css">
	.st0{fill:#37444C;}
</style>
<g>
	<polygon class="st0" points="72.7,69.2 43.3,69.2 43.3,55.8 69.7,55.8 69.7,46.5 43.3,46.5 43.3,34.8 72.1,34.8 72.1,24.7 
		31.3,24.7 31.3,79.3 72.7,79.3 	"/>
	<path class="st0" d="M75.3,119.3l-14.8,14.8l-32.7-7.9l-5.4,5.4l27.2,13.8l-11,11l-8.4-1l-4.3,4.3l9.6,5l5,9.6l4.3-4.3l-1-8.5
		l11-11l13.8,27.3l5.4-5.4l-8.2-33l14.7-14.7C84.1,121.1,78.8,115.8,75.3,119.3z"/>
	<path class="st0" d="M123.3,69.4v5.1c0,6.2,8.8,6.2,8.8,0v-5.1h31.7v5.1c0,6.2,8.8,6.2,8.8,0v-5.1h4.7V53.5c0-4.2-3.4-6.5-5.3-6.7
		l-4.8-12.4c-0.9-2.4-2.9-4.4-6.6-4.4h-6.8l0,0v-3.8c0-0.7-0.5-1.2-1.2-1.2h-9.2c-0.7,0-1.2,0.5-1.2,1.2V30h-6.8
		c-3.7,0-5.7,2-6.6,4.4L124,46.8c-1.9,0.2-5.3,2.5-5.3,6.7v15.8L123.3,69.4L123.3,69.4z M168.1,51.5c2.3,0,4.1,1.9,4.1,4.2
		c0,2.3-1.8,4.2-4.1,4.2c-2.2,0-4.1-1.9-4.1-4.2C164,53.3,165.9,51.5,168.1,51.5z M132.5,36.9c0.5-1.4,1.1-2.4,2.7-2.4H148l0,0l0,0
		h12.7c1.6,0,2.3,1,2.7,2.4l3.6,9.8h-19l0,0h-19.1L132.5,36.9z M127.9,51.5c2.2,0,4.1,1.9,4.1,4.2c0,2.3-1.8,4.2-4.1,4.2
		c-2.3,0-4.1-1.9-4.1-4.2C123.8,53.3,125.6,51.5,127.9,51.5z"/>
	<path class="st0" d="M144.1,115.1v15.4h-2.2v-15.3c0-1.9-2.4-1.8-2.4-0.1v15.4h-2.2v-15.3c0-1.8-2.5-1.7-2.5-0.1v15.4h-2.2v-15.2
		c0-1.9-2.6-1.8-2.6-0.1v20.6c0,2.9,2.2,4.9,4.8,4.9v37.5c0,5.3,7.2,5.3,7.2,0v-37.5c2.6,0,4.6-2.4,4.6-4.6v-20.9
		C146.7,113.4,144.1,113.4,144.1,115.1z"/>
	<path class="st0" d="M154.9,120v35.1h3.9v23.1c0,5.1,7.3,5.2,7.3,0V120C166,111.8,154.9,111.8,154.9,120z"/>
	<path class="st0" d="M175.2,0H24.8C11.1,0,0,11.1,0,24.8v150.4C0,188.9,11.1,200,24.8,200h150.4c13.7,0,24.8-11.1,24.8-24.8V24.8
		C200,11.1,188.9,0,175.2,0z M191.9,24.8V96H104V8.1h71.2C184.4,8.1,191.9,15.6,191.9,24.8z M24.8,8.1H96V96H8.1V24.8
		C8.1,15.6,15.6,8.1,24.8,8.1z M8.1,175.2V104H96v87.9H24.8C15.6,191.9,8.1,184.4,8.1,175.2z M175.2,191.9H104V104h87.9v71.2
		C191.9,184.4,184.4,191.9,175.2,191.9z"/>
</g>
</svg>
